<svg xmlns="http://www.w3.org/2000/svg" xmlns:xlink="http://www.w3.org/1999/xlink" viewBox="0 0 64.1 18.53"><defs><style>.cls-1{fill:url(#Безымянный_градиент_2);}.cls-2{fill:#2e44a0;}</style><radialGradient id="Безымянный_градиент_2" cx="6.47" cy="22.13" r="8.5" gradientTransform="matrix(1, 0, 0, -1, 1.22, 31.41)" gradientUnits="userSpaceOnUse"><stop offset="1" stop-color="#2e44a0"/><stop offset="1" stop-color="#fff"/></radialGradient></defs><g id="Слой_2" data-name="Слой 2"><g id="Слой_1-2" data-name="Слой 1"><path class="cls-1" d="M11.8,7.2l-6,6h0L4.1,14.9,4,15A36.36,36.36,0,0,1,.6,18.4c-.1,0-.3.2-.4.1S0,18,0,17.9V1.3A1.61,1.61,0,0,1,.3.4,1,1,0,0,1,1,0H8.3l-6,6a3.11,3.11,0,0,0,4.4,4.4l4.2-4.2a.56.56,0,0,1,.9,0h0C12.1,6.6,12.1,7,11.8,7.2Z"/><path class="cls-1" d="M15.4,7.5c0,5-2.1,7.4-6.3,7.4H7.7l6-6A3.11,3.11,0,0,0,9.3,4.5L5.1,8.7a.56.56,0,0,1-.9,0h0a.56.56,0,0,1,0-.9L7.9,4.1h0L11.6.4C14.1,1.2,15.4,3.6,15.4,7.5Z"/><path class="cls-2" d="M18.8,2.6a.47.47,0,0,1,.5-.5h4.1a4.64,4.64,0,0,1,1.4.2,1.06,1.06,0,0,1,.6.7,3.75,3.75,0,0,1,.1,1.1V7.3a6.15,6.15,0,0,1-.1,1.4,1.9,1.9,0,0,1-.7,1.1,3,3,0,0,1-1.8.4H21.1a.47.47,0,0,0-.5.5v3.7a.47.47,0,0,1-.5.5h-.7a.47.47,0,0,1-.5-.5V2.6Zm3.6,6.1a1.49,1.49,0,0,0,1-.3,1.61,1.61,0,0,0,.3-1.1V4.9a2.33,2.33,0,0,0-.2-1.1,1.22,1.22,0,0,0-.9-.3H21.3a.47.47,0,0,0-.5.5V8.7Z"/><path class="cls-2" d="M27.7,14.9a.47.47,0,0,1-.5-.5V5.2h1.5l.2,1a2,2,0,0,1,.9-.9A2.66,2.66,0,0,1,31,5a1.72,1.72,0,0,1,.8.1.76.76,0,0,1,.5.2l-.1,1.5a1.27,1.27,0,0,0-.6-.1c-.2,0-.5-.1-.8-.1a2,2,0,0,0-1.1.3,2,2,0,0,0-.7,1v6.5a.47.47,0,0,1-.5.5Z"/><path class="cls-2" d="M36.6,15a5.84,5.84,0,0,1-2.1-.3,1.34,1.34,0,0,1-.9-.9,2.15,2.15,0,0,1-.2-1.1V7.4a2.66,2.66,0,0,1,.3-1.2,2.23,2.23,0,0,1,1-.9A5.84,5.84,0,0,1,36.8,5a5.25,5.25,0,0,1,2,.3,2.09,2.09,0,0,1,1,.8,2.13,2.13,0,0,1,.3,1.2v5.1a2.77,2.77,0,0,1-.3,1.3,1.79,1.79,0,0,1-1,.9A5.38,5.38,0,0,1,36.6,15Zm-.1-1.4c.6,0,1-.1,1.2-.4a1.16,1.16,0,0,0,.4-1V7.7a1,1,0,0,0-.4-.9,1.6,1.6,0,0,0-1.1-.4,1.37,1.37,0,0,0-1.1.4,1.09,1.09,0,0,0-.4.9v4.6a1,1,0,0,0,.4.9A1.28,1.28,0,0,0,36.5,13.6Z"/><path d="M45,15c-.6,0-1.2-.1-1.7-.1a3,3,0,0,1-1.3-.5,1.23,1.23,0,0,1-.5-1V11a.47.47,0,0,1,.5-.5l1.4-.2v2.3a.91.91,0,0,0,.3.7c.2.2.6.2,1.2.2a2.22,2.22,0,0,0,.9-.1.78.78,0,0,0,.4-.4,1.48,1.48,0,0,0,.1-.7V10.7A2,2,0,0,0,46,9.6,1.7,1.7,0,0,0,45,9l-1.6-.3A3.65,3.65,0,0,1,42,8a2,2,0,0,1-.4-1.4V4.1a1.73,1.73,0,0,1,.5-1.3,2.28,2.28,0,0,1,1.2-.6,9.72,9.72,0,0,1,1.8-.1,7.59,7.59,0,0,1,1.6.1,2.26,2.26,0,0,1,1.1.5,1.16,1.16,0,0,1,.4,1V6.1a.47.47,0,0,1-.5.5l-1.4.2V4.6a1.22,1.22,0,0,0-.3-.9c-.2-.2-.6-.2-1.1-.2a1.61,1.61,0,0,0-1.1.3,1.44,1.44,0,0,0-.3,1.1V6.3a1.22,1.22,0,0,0,.3.9,1.46,1.46,0,0,0,.9.6l1.7.5a3.47,3.47,0,0,1,1.5.8,2,2,0,0,1,.4,1.4v2.4a1.7,1.7,0,0,1-.4,1.3,2,2,0,0,1-1.1.6A5.54,5.54,0,0,1,45,15Z"/><path d="M53,15a5.84,5.84,0,0,1-2.1-.3,1.34,1.34,0,0,1-.9-.9,2.15,2.15,0,0,1-.2-1.1V7.4a2.66,2.66,0,0,1,.3-1.2,2.23,2.23,0,0,1,1-.9A5.84,5.84,0,0,1,53.2,5a5.25,5.25,0,0,1,2,.3,2.09,2.09,0,0,1,1,.8,2.13,2.13,0,0,1,.3,1.2v5.1a2.77,2.77,0,0,1-.3,1.3,1.79,1.79,0,0,1-1,.9A4.81,4.81,0,0,1,53,15Zm0-1.4c.6,0,1-.1,1.2-.4a1.16,1.16,0,0,0,.4-1V7.7a1,1,0,0,0-.4-.9,1.6,1.6,0,0,0-1.1-.4,1.37,1.37,0,0,0-1.1.4,1.09,1.09,0,0,0-.4.9v4.6a1,1,0,0,0,.4.9A1.28,1.28,0,0,0,53,13.6Z"/><path d="M60.1,14.9,57.2,5.1h1.3a.66.66,0,0,1,.5.4l1.7,6.3v-.3l1.5-6a.66.66,0,0,1,.5-.4h1.4l-2.8,9.8Z"/></g></g></svg>