<?xml version="1.0" encoding="utf-8"?>
<!-- Generator: Adobe Illustrator 25.2.1, SVG Export Plug-In . SVG Version: 6.00 Build 0)  -->
<svg version="1.1" id="Слой_1" xmlns="http://www.w3.org/2000/svg" xmlns:xlink="http://www.w3.org/1999/xlink" x="0px" y="0px"
	 viewBox="0 0 128 128" style="enable-background:new 0 0 128 128;" xml:space="preserve">
<style type="text/css">
	.st0{fill:url(#SVGID_1_);}
	.st1{fill:url(#SVGID_2_);}
	.st2{fill:#2E44A0;}
</style>
<g>
	<g>
		
			<radialGradient id="SVGID_1_" cx="36.0733" cy="54.771" r="8.4979" gradientTransform="matrix(1 0 0 1 1.2207 7.6147)" gradientUnits="userSpaceOnUse">
			<stop  offset="1" style="stop-color:#2E44A0"/>
			<stop  offset="1" style="stop-color:#FFFFFF"/>
		</radialGradient>
		<path class="st0" d="M41.4,60.3l-6,6h0L33.7,68l-0.1,0.1c-0.5,0.5-2.7,3-3.4,3.4c-0.1,0-0.3,0.2-0.4,0.1c-0.2-0.1-0.2-0.5-0.2-0.6
			V54.4c0-0.3,0.1-0.6,0.3-0.9c0.2-0.2,0.4-0.4,0.7-0.4h7.3l0,0l0,0l-6,6c-1.2,1.2-1.2,3.2,0,4.4c1.2,1.2,3.2,1.2,4.4,0l4.2-4.2
			c0.3-0.3,0.7-0.3,0.9,0l0,0C41.7,59.7,41.7,60.1,41.4,60.3z"/>
		
			<radialGradient id="SVGID_2_" cx="36.0733" cy="54.771" r="8.4979" gradientTransform="matrix(1 0 0 1 1.2207 7.6147)" gradientUnits="userSpaceOnUse">
			<stop  offset="1" style="stop-color:#2E44A0"/>
			<stop  offset="1" style="stop-color:#FFFFFF"/>
		</radialGradient>
		<path class="st1" d="M45,60.6c0,5-2.1,7.4-6.3,7.4h-1.4l6-6c1.2-1.2,1.2-3.2,0-4.4c-1.2-1.2-3.2-1.2-4.4,0l-4.2,4.2
			c-0.3,0.3-0.7,0.3-0.9,0l0,0c-0.3-0.3-0.3-0.7,0-0.9l3.7-3.7l0,0l3.7-3.7C43.7,54.3,45,56.7,45,60.6z"/>
	</g>
</g>
<g>
	<path class="st2" d="M48.4,55.7c0-0.3,0.2-0.5,0.5-0.5h4.1c0.6,0,1.1,0.1,1.4,0.2c0.3,0.1,0.5,0.4,0.6,0.7c0.1,0.3,0.1,0.7,0.1,1.1
		v3.2c0,0.5,0,1-0.1,1.4c-0.1,0.4-0.3,0.8-0.7,1.1c-0.4,0.3-1,0.4-1.8,0.4h-1.8c-0.3,0-0.5,0.2-0.5,0.5v3.7c0,0.3-0.2,0.5-0.5,0.5
		H49c-0.3,0-0.5-0.2-0.5-0.5V55.7z M52,61.8c0.4,0,0.8-0.1,1-0.3c0.2-0.2,0.3-0.6,0.3-1.1v-2.4c0-0.6-0.1-0.9-0.2-1.1
		c-0.2-0.2-0.5-0.3-0.9-0.3h-1.3c-0.3,0-0.5,0.2-0.5,0.5v4.7H52z"/>
	<path class="st2" d="M57.3,68c-0.3,0-0.5-0.2-0.5-0.5v-9.2h1.5l0.2,1c0.2-0.4,0.5-0.7,0.9-0.9c0.4-0.2,0.8-0.3,1.2-0.3
		c0.4,0,0.6,0,0.8,0.1c0.2,0,0.4,0.1,0.5,0.2l-0.1,1.5c-0.2-0.1-0.4-0.1-0.6-0.1c-0.2,0-0.5-0.1-0.8-0.1c-0.4,0-0.8,0.1-1.1,0.3
		c-0.3,0.2-0.5,0.5-0.7,1v6.5c0,0.3-0.2,0.5-0.5,0.5H57.3z"/>
	<path class="st2" d="M66.2,68.1c-0.9,0-1.6-0.1-2.1-0.3c-0.5-0.2-0.8-0.5-0.9-0.9c-0.2-0.4-0.2-0.7-0.2-1.1v-5.3
		c0-0.4,0.1-0.8,0.3-1.2c0.2-0.4,0.5-0.6,1-0.9c0.5-0.2,1.2-0.3,2.1-0.3c0.9,0,1.5,0.1,2,0.3c0.5,0.2,0.8,0.5,1,0.8
		c0.2,0.3,0.3,0.7,0.3,1.2v5.1c0,0.5-0.1,0.9-0.3,1.3c-0.2,0.4-0.5,0.7-1,0.9C67.7,68,67,68.1,66.2,68.1z M66.1,66.7
		c0.6,0,1-0.1,1.2-0.4c0.3-0.2,0.4-0.6,0.4-1v-4.5c0-0.4-0.1-0.7-0.4-0.9c-0.2-0.2-0.6-0.4-1.1-0.4c-0.5,0-0.8,0.1-1.1,0.4
		c-0.3,0.2-0.4,0.6-0.4,0.9v4.6c0,0.4,0.1,0.7,0.4,0.9C65.4,66.6,65.7,66.7,66.1,66.7z"/>
	<path d="M74.6,68.1c-0.6,0-1.2-0.1-1.7-0.1c-0.5-0.1-0.9-0.2-1.3-0.5c-0.3-0.2-0.5-0.6-0.5-1v-2.4c0-0.3,0.2-0.5,0.5-0.5l1.4-0.2
		v2.3c0,0.3,0.1,0.5,0.3,0.7c0.2,0.2,0.6,0.2,1.2,0.2c0.4,0,0.7,0,0.9-0.1c0.2-0.1,0.3-0.2,0.4-0.4c0.1-0.2,0.1-0.4,0.1-0.7v-1.6
		c0-0.4-0.1-0.8-0.3-1.1c-0.2-0.3-0.6-0.5-1-0.6L73,61.8c-0.6-0.2-1.1-0.4-1.4-0.7c-0.3-0.3-0.4-0.8-0.4-1.4v-2.5
		c0-0.6,0.2-1,0.5-1.3c0.3-0.3,0.7-0.5,1.2-0.6c0.5-0.1,1.1-0.1,1.8-0.1c0.6,0,1.2,0,1.6,0.1c0.5,0.1,0.9,0.3,1.1,0.5
		c0.3,0.2,0.4,0.6,0.4,1v2.4c0,0.3-0.2,0.5-0.5,0.5l-1.4,0.2v-2.2c0-0.4-0.1-0.7-0.3-0.9c-0.2-0.2-0.6-0.2-1.1-0.2
		c-0.5,0-0.9,0.1-1.1,0.3c-0.2,0.2-0.3,0.5-0.3,1.1v1.4c0,0.4,0.1,0.7,0.3,0.9c0.2,0.3,0.5,0.5,0.9,0.6l1.7,0.5
		c0.7,0.2,1.2,0.5,1.5,0.8c0.3,0.3,0.4,0.8,0.4,1.4V66c0,0.6-0.1,1-0.4,1.3c-0.3,0.3-0.6,0.5-1.1,0.6C75.8,68.1,75.2,68.1,74.6,68.1
		z"/>
	<path d="M82.6,68.1c-0.9,0-1.6-0.1-2.1-0.3c-0.5-0.2-0.8-0.5-0.9-0.9c-0.2-0.4-0.2-0.7-0.2-1.1v-5.3c0-0.4,0.1-0.8,0.3-1.2
		c0.2-0.4,0.5-0.6,1-0.9c0.5-0.2,1.2-0.3,2.1-0.3c0.9,0,1.5,0.1,2,0.3c0.5,0.2,0.8,0.5,1,0.8c0.2,0.3,0.3,0.7,0.3,1.2v5.1
		c0,0.5-0.1,0.9-0.3,1.3c-0.2,0.4-0.5,0.7-1,0.9C84.2,68,83.5,68.1,82.6,68.1z M82.6,66.7c0.6,0,1-0.1,1.2-0.4
		c0.3-0.2,0.4-0.6,0.4-1v-4.5c0-0.4-0.1-0.7-0.4-0.9c-0.2-0.2-0.6-0.4-1.1-0.4c-0.5,0-0.8,0.1-1.1,0.4c-0.3,0.2-0.4,0.6-0.4,0.9v4.6
		c0,0.4,0.1,0.7,0.4,0.9C81.9,66.6,82.2,66.7,82.6,66.7z"/>
	<path d="M89.7,68l-2.9-9.8h1.3c0.2,0,0.4,0.2,0.5,0.4l1.7,6.3v-0.3l1.5-6c0.1-0.2,0.3-0.4,0.5-0.4h1.4L90.9,68H89.7z"/>
</g>
</svg>
